<svg width="25" height="25" viewBox="0 0 25 25" fill="none" xmlns="http://www.w3.org/2000/svg">
<path d="M11.956 1.33631V6.86076C11.956 7.12944 12.1737 7.34734 12.4424 7.34734C12.7112 7.34734 12.9289 7.12944 12.9289 6.86076V1.33631C12.9289 1.06764 12.7112 0.849731 12.4424 0.849731C12.1737 0.849731 11.956 1.06764 11.956 1.33631Z" fill="black"/>
<path d="M12.9289 24.3633V18.8389C12.9289 18.5702 12.7112 18.3523 12.4423 18.3523C12.1736 18.3523 11.9559 18.5702 11.9559 18.8389V24.3633C11.9559 24.632 12.1736 24.8497 12.4423 24.8497C12.7112 24.8497 12.9289 24.632 12.9289 24.3633Z" fill="black"/>
<path d="M13.6881 3.79778C13.6631 3.9246 13.6895 4.05622 13.7616 4.16337C13.8338 4.27071 13.9456 4.34475 14.0724 4.36944C15.7524 4.70653 17.2932 5.53802 18.4969 6.75736C19.7008 7.97669 20.5124 9.52831 20.8279 11.2124C20.8455 11.3442 20.9164 11.4632 21.0241 11.5414C21.1319 11.6197 21.2667 11.6502 21.3977 11.6263C21.5285 11.6022 21.6439 11.5258 21.7169 11.4144C21.7898 11.3032 21.8141 11.1668 21.7838 11.0372C21.4328 9.16072 20.5285 7.43209 19.1873 6.0735C17.846 4.71491 16.1293 3.78852 14.2574 3.41349C13.9941 3.36293 13.7395 3.53469 13.6881 3.79774L13.6881 3.79778Z" fill="black"/>
<path d="M13.6881 21.7139C13.7419 21.9749 13.9957 22.1441 14.2573 22.0933C16.1013 21.7371 17.798 20.8419 19.1327 19.5206C20.4672 18.1993 21.3798 16.5116 21.7546 14.6715C21.8084 14.4082 21.6384 14.1512 21.375 14.0974C21.1117 14.0436 20.8547 14.2136 20.8009 14.4768C20.4658 16.1298 19.6476 17.6459 18.4495 18.833C17.2517 20.02 15.7283 20.8246 14.0723 21.1446C13.8093 21.1962 13.6375 21.4506 13.6881 21.7139L13.6881 21.7139Z" fill="black"/>
<path d="M4.04768 14.4748C3.99391 14.2116 3.73687 14.0416 3.47341 14.0954C3.21015 14.1492 3.0402 14.4062 3.09398 14.6695C3.4708 16.515 4.38856 18.2067 5.7303 19.529C7.07184 20.851 8.77679 21.7439 10.6278 22.0937C10.8918 22.1441 11.1467 21.9709 11.197 21.707C11.2474 21.443 11.0742 21.1881 10.8102 21.1378C9.14877 20.8242 7.61842 20.023 6.41413 18.8363C5.20965 17.6497 4.38578 16.1314 4.04769 14.4748H4.04768Z" fill="black"/>
<path d="M3.45644 11.6066C3.58346 11.63 3.71468 11.602 3.82103 11.5283C3.92737 11.4549 4.00001 11.3421 4.02308 11.2149C4.3379 9.52443 5.15314 7.96716 6.36328 6.74541C7.57342 5.52366 9.12263 4.69337 10.8101 4.36226C11.0741 4.3119 11.2473 4.05708 11.1969 3.79302C11.1465 3.52897 10.8917 3.35581 10.6277 3.40617C8.74699 3.77397 7.02021 4.69855 5.67123 6.05955C4.32204 7.42076 3.41332 9.15576 3.06218 11.0397C3.03891 11.1673 3.0674 11.2987 3.14144 11.4051C3.21528 11.5116 3.32864 11.584 3.45646 11.6065L3.45644 11.6066Z" fill="black"/>
<path d="M18.4318 12.3632C18.1632 12.3632 17.9453 12.5809 17.9453 12.8495C17.9453 13.1184 18.1632 13.3361 18.4318 13.3361H23.9563C24.2249 13.3361 24.4427 13.1184 24.4427 12.8495C24.4427 12.5809 24.2249 12.3632 23.9563 12.3632H18.4318Z" fill="black"/>
<path d="M0.929205 13.3361H6.45365C6.72232 13.3361 6.94023 13.1183 6.94023 12.8495C6.94023 12.5808 6.72232 12.3631 6.45365 12.3631H0.929205C0.660533 12.3631 0.442627 12.5808 0.442627 12.8495C0.442627 13.1183 0.660533 13.3361 0.929205 13.3361Z" fill="black"/>
<path d="M16.3725 12.8496C16.3725 15.0201 14.613 16.7797 12.4425 16.7797C10.2719 16.7797 8.51239 15.0201 8.51239 12.8496C8.51239 10.6791 10.2719 8.91949 12.4425 8.91949C14.613 8.91949 16.3725 10.6791 16.3725 12.8496Z" stroke="black"/>
</svg>
